<svg version="1.0" xmlns="http://www.w3.org/2000/svg"
 width="500.000000pt" height="500.000000pt" viewBox="0 0 500.000000 500.000000"
 preserveAspectRatio="xMidYMid meet">

<g transform="translate(0.000000,500.000000) scale(0.100000,-0.100000)"
fill="#000000" stroke="none">
<path d="M3623 4980 c-168 -18 -295 -83 -343 -176 -25 -46 -27 -63 -34 -220
-7 -164 -8 -170 -37 -215 -35 -56 -36 -59 -4 -59 24 0 25 -3 25 -56 0 -137
105 -210 235 -165 33 12 63 21 67 21 17 0 8 -65 -11 -77 -13 -8 -21 -29 -26
-63 l-7 -50 -121 -59 c-223 -109 -224 -109 -777 -675 l-214 -218 -22 25 c-20
23 -21 30 -11 57 10 27 7 50 -21 158 -18 70 -32 130 -32 135 0 4 74 7 165 7
l165 0 -7 33 c-27 142 -134 448 -199 567 -73 133 -198 270 -291 319 -24 12
-664 17 -676 4 -4 -3 0 -15 10 -25 16 -17 1 -18 -464 -18 -464 0 -481 -1 -506
-20 -13 -11 -28 -31 -31 -46 -5 -18 35 -165 135 -497 77 -260 152 -509 165
-554 37 -121 40 -123 230 -123 119 0 154 -3 154 -13 0 -7 -16 -67 -35 -134
-45 -156 -45 -200 -4 -248 l31 -35 -379 -2 -378 -3 -3 -1272 c-1 -847 1 -1273
8 -1273 7 0 10 364 10 1080 l0 1080 465 0 c365 0 465 -3 465 -12 0 -7 0 -493
0 -1080 0 -712 3 -1068 10 -1068 7 0 10 360 10 1080 l0 1080 820 0 c700 0 820
-2 820 -14 0 -10 -65 -30 -232 -71 -128 -31 -307 -75 -398 -97 -91 -22 -191
-53 -223 -69 -170 -86 -233 -259 -177 -484 35 -140 382 -1181 399 -1198 5 -5
34 -2 64 7 67 20 67 20 67 1 0 -54 -68 -90 -185 -99 -81 -7 -173 -46 -219 -95
l-30 -31 351 0 c327 0 351 1 349 17 -1 13 27 33 94 70 52 29 102 56 110 61 12
7 11 15 -5 58 -10 27 -29 66 -42 86 -25 41 -27 48 -14 48 5 0 24 7 44 15 35
14 35 15 25 57 -5 24 -57 261 -114 528 -57 267 -107 493 -110 503 -5 16 5 17
120 17 l126 0 0 -735 c0 -483 3 -735 10 -735 7 0 10 252 10 735 l0 735 60 0
c47 0 64 -4 80 -20 19 -19 33 -20 245 -20 173 0 225 -3 225 -12 0 -7 -92 -328
-205 -713 -112 -384 -202 -701 -199 -704 7 -8 11 2 50 134 l39 130 275 0 275
0 5 -140 c3 -84 7 -124 11 -100 3 22 4 78 3 125 -1 47 0 92 2 101 4 15 36 17
304 17 l299 1 42 -127 c36 -109 59 -164 59 -139 0 6 -248 775 -406 1260 -25
76 -44 143 -42 149 3 7 41 12 97 14 159 6 244 44 316 141 95 131 118 398 50
610 -26 83 -47 113 -81 113 -20 0 -23 6 -28 58 -38 353 -120 1078 -131 1152
-19 122 -37 184 -73 240 -25 38 -53 59 -193 140 -90 52 -171 102 -180 111 -9
9 -24 49 -34 90 -10 41 -21 78 -26 84 -21 22 -6 79 51 198 77 160 89 194 96
276 8 81 -14 178 -54 236 -33 48 -115 92 -187 98 -27 3 -83 1 -122 -3z m-260
-270 c16 -8 30 -24 33 -39 16 -82 37 -130 71 -164 20 -20 42 -37 49 -37 7 0
21 26 31 58 23 68 48 78 89 37 28 -28 29 -48 4 -135 -18 -64 -7 -112 38 -159
26 -28 49 -41 77 -46 61 -10 65 -13 65 -38 0 -20 -16 -30 -126 -77 -70 -30
-131 -57 -136 -59 -6 -2 -8 12 -3 37 3 22 3 42 -2 45 -4 3 -35 -6 -67 -19 -70
-29 -109 -30 -156 -6 -55 27 -80 74 -80 148 0 60 -1 63 -25 66 l-25 3 26 39
c22 32 28 55 32 113 4 68 6 73 28 73 12 0 26 -4 29 -10 3 -5 11 -10 17 -10 6
0 3 9 -8 21 -12 13 -27 19 -42 16 -24 -5 -24 -3 -18 41 3 24 6 67 6 94 l0 48
33 -14 c17 -7 44 -19 60 -26z m-1197 -493 c135 -99 227 -234 317 -463 31 -79
93 -282 111 -366 l6 -28 -267 0 -268 1 -33 44 c-23 30 -38 42 -49 38 -13 -5
-15 -2 -9 18 5 13 10 55 13 92 5 67 4 71 -48 174 -30 57 -62 109 -72 114 -29
16 -40 0 -34 -48 5 -44 4 -43 -59 61 -74 123 -149 228 -240 332 l-65 74 320 0
319 0 58 -43z m-247 -489 c46 -86 54 -110 55 -157 0 -31 -7 -77 -17 -102 -16
-43 -22 -48 -85 -73 l-67 -26 -23 27 c-13 16 -35 50 -49 77 -35 69 -31 168 12
251 17 32 35 60 41 62 5 2 25 -29 44 -69 39 -85 50 -70 26 36 -19 81 -19 76
-3 76 6 0 36 -46 66 -102z m-41 -600 l82 -123 -550 -3 c-476 -2 -555 0 -580
13 -25 13 -34 29 -60 112 -16 54 -30 103 -30 110 0 10 104 13 528 13 l528 0
82 -122z m439 36 c19 -78 21 -124 4 -124 -6 1 -139 169 -154 196 -7 11 4 14
60 14 l69 0 21 -86z m973 -429 c39 -247 73 -459 75 -471 4 -19 -8 -24 -163
-63 -92 -23 -175 -44 -184 -47 -16 -5 -18 11 -20 198 l-3 203 -275 3 -274 2
59 29 c62 29 156 113 530 467 133 127 171 158 177 145 4 -9 39 -218 78 -466z
m-1665 234 c-35 -109 -65 -231 -65 -262 0 -47 21 -88 57 -113 25 -17 54 -20
238 -25 135 -3 48 -5 -247 -5 l-456 1 -26 24 c-52 49 -53 76 -5 247 l42 154
234 0 c234 0 234 0 228 -21z m441 -121 c119 -173 173 -234 239 -264 l50 -24
-142 0 c-121 0 -143 2 -143 15 0 13 -30 15 -206 15 -176 0 -210 2 -235 17 -29
17 -59 67 -59 97 0 17 68 264 77 279 2 4 76 7 163 7 l159 0 97 -142z m-743
-486 l2 -172 -467 0 -468 0 0 175 0 175 465 -2 466 -3 2 -173z m1657 3 l0
-175 -820 0 -820 0 0 175 0 175 820 0 820 0 0 -175z m568 -181 c121 -104 249
-176 385 -218 17 -5 16 -8 -4 -48 -73 -146 -144 -239 -203 -267 -38 -19 -62
-21 -252 -21 -261 -1 -299 -12 -339 -96 l-16 -34 -334 0 c-191 0 -335 -4 -335
-9 0 -5 18 -78 39 -162 168 -655 241 -948 241 -960 0 -17 -358 -125 -371 -112
-9 9 -333 974 -373 1108 -80 274 -32 448 150 539 30 15 301 89 680 184 346 88
635 160 642 161 7 0 47 -29 90 -65z m-720 -1227 c62 -287 115 -531 118 -542 4
-18 -7 -24 -105 -57 -61 -20 -111 -32 -111 -27 0 5 5 9 10 9 6 0 10 7 10 16 0
8 -63 262 -140 564 -77 302 -140 552 -140 555 0 3 55 5 123 5 l122 0 113 -523z
m1020 -94 l2 -573 -276 0 c-258 0 -275 1 -270 18 3 9 32 109 65 222 33 113 96
331 141 485 46 154 92 313 103 353 l20 73 106 -3 106 -3 3 -572z m238 569 c10
-6 374 -1110 374 -1133 0 -5 -132 -9 -294 -9 l-294 0 -6 26 c-8 32 -6 1110 2
1118 8 9 205 7 218 -2z"/>
<path d="M3286 4451 c-4 -5 -2 -12 3 -15 5 -4 12 -2 15 3 4 5 2 12 -3 15 -5 4
-12 2 -15 -3z"/>
<path d="M3320 4275 c-7 -8 -18 -15 -26 -15 -7 0 -16 -4 -19 -10 -3 -5 0 -10
8 -10 19 0 64 36 56 44 -3 4 -12 0 -19 -9z"/>
</g>
</svg>
