<svg version="1.0" xmlns="http://www.w3.org/2000/svg"
 width="500.000000pt" height="500.000000pt" viewBox="0 0 500.000000 500.000000"
 preserveAspectRatio="xMidYMid meet">

<g transform="translate(0.000000,500.000000) scale(0.100000,-0.100000)"
fill="#000000" stroke="none">
<path d="M3535 4965 c-127 -28 -219 -86 -255 -160 -19 -40 -24 -73 -32 -223
-9 -173 -10 -178 -39 -216 -35 -49 -36 -56 -4 -56 23 0 25 -3 25 -49 0 -27 5
-62 11 -78 18 -47 67 -91 119 -103 41 -10 55 -8 110 11 45 15 65 18 68 10 6
-18 22 -13 22 7 0 31 -9 31 -78 5 -139 -52 -232 5 -232 144 0 58 -1 62 -25 65
l-25 3 27 40 c22 33 28 54 31 113 4 68 6 72 28 72 12 0 26 -4 29 -10 3 -5 11
-10 17 -10 6 0 3 9 -8 21 -11 13 -27 19 -40 16 -22 -4 -22 -3 -17 87 3 50 6
92 7 93 1 1 27 -10 59 -24 44 -20 59 -32 63 -52 16 -81 37 -131 70 -165 19
-20 41 -36 49 -36 7 0 22 25 32 58 23 67 48 78 88 38 29 -29 31 -58 9 -112
-42 -101 18 -214 121 -231 22 -3 43 -11 47 -17 21 -31 4 -43 -143 -106 -84
-37 -155 -73 -160 -83 -6 -10 -11 -38 -12 -62 -2 -40 -4 -44 -37 -54 -50 -15
-219 -103 -288 -150 -65 -44 -125 -101 -521 -503 -150 -153 -275 -278 -276
-278 -2 0 -13 13 -24 29 -18 25 -19 33 -10 55 13 28 4 87 -32 200 -33 102 -42
96 141 96 l160 0 0 29 c0 92 -145 488 -226 617 -65 106 -182 227 -250 260
l-54 26 -311 -7 c-297 -7 -310 -8 -306 -26 5 -18 -10 -19 -473 -19 -461 0
-478 -1 -503 -20 -13 -11 -27 -30 -31 -44 -4 -16 47 -200 149 -542 85 -286
162 -538 171 -561 24 -66 41 -72 217 -75 l154 -3 -38 -135 c-50 -178 -50 -208
3 -267 20 -21 20 -21 0 -27 -11 -4 -178 -5 -370 -4 -193 2 -354 -1 -358 -5
-13 -13 -17 -2524 -5 -2532 8 -4 11 307 11 1074 l0 1081 468 0 467 0 -3 -1064
c-3 -735 0 -1070 7 -1083 7 -13 10 300 11 1065 l0 1082 820 0 c713 0 820 -2
820 -15 0 -8 -16 -18 -37 -24 -52 -14 -447 -112 -613 -151 -164 -39 -224 -65
-285 -121 -125 -115 -144 -256 -69 -509 67 -225 362 -1092 375 -1105 12 -11
24 -10 69 5 58 18 66 15 56 -25 -11 -44 -59 -67 -159 -77 -50 -5 -111 -18
-135 -28 -48 -22 -122 -76 -122 -91 0 -5 141 -9 340 -9 326 0 340 1 340 19 0
14 29 34 110 76 126 66 123 59 66 170 -17 33 -32 63 -34 66 -2 4 16 14 40 22
25 8 42 20 42 28 -1 8 -31 149 -67 314 -37 165 -87 395 -112 510 -25 116 -47
220 -50 232 -7 30 31 37 150 28 l95 -7 0 -734 c0 -483 3 -734 10 -734 7 0 10
251 10 734 l0 734 23 6 c38 10 85 7 99 -7 33 -34 58 -37 272 -37 166 0 216 -3
216 -12 0 -10 -375 -1304 -406 -1400 -3 -10 -1 -18 4 -18 5 0 24 53 42 118 18
64 37 125 42 135 8 16 32 17 283 17 l275 0 0 -142 c0 -78 3 -138 6 -135 4 4 7
66 8 139 l1 133 302 3 302 2 42 -132 c24 -73 44 -135 46 -137 23 -30 -21 114
-212 704 -125 383 -224 703 -221 710 3 9 37 14 118 17 98 3 121 8 170 31 139
68 208 215 208 449 0 136 -19 240 -58 318 -22 44 -32 56 -54 58 -16 2 -28 5
-28 8 0 24 -124 1123 -136 1199 -26 172 -51 235 -115 289 -19 15 -103 69 -188
120 l-155 91 -24 85 c-42 151 -43 143 37 308 78 161 97 233 86 325 -13 119
-55 190 -138 232 -45 22 -63 25 -151 24 -56 -1 -128 -7 -161 -14z m-1384 -736
c141 -100 240 -242 329 -469 34 -90 93 -281 114 -372 l6 -28 -267 0 -268 1
-33 44 c-23 30 -38 42 -49 38 -14 -5 -15 -2 -7 23 5 16 9 63 9 104 0 72 -2 79
-55 175 -41 74 -61 100 -75 100 -17 0 -20 -7 -19 -47 l0 -46 -62 104 c-69 116
-146 222 -241 331 l-64 73 319 0 319 0 44 -31z m-231 -504 c61 -119 69 -173
37 -256 -16 -43 -22 -48 -85 -73 l-67 -26 -22 27 c-12 15 -34 49 -49 76 -37
68 -32 165 12 251 17 33 35 61 40 62 5 2 24 -29 43 -69 40 -83 51 -70 27 34
-14 61 -13 79 2 79 4 0 32 -47 62 -105z m-50 -586 c41 -62 79 -120 85 -130 31
-54 217 -310 257 -354 26 -28 65 -60 87 -70 23 -10 41 -22 41 -26 0 -11 -252
1 -267 13 -7 5 -98 9 -208 8 -182 -1 -199 1 -230 20 -33 20 -65 72 -65 105 0
10 16 77 37 151 l36 133 141 4 c78 1 -97 4 -387 5 -430 2 -534 5 -562 16 -31
13 -36 21 -64 114 -17 54 -31 104 -31 111 0 8 140 11 528 11 l528 0 74 -111z
m446 29 c18 -79 21 -128 6 -128 -7 1 -154 185 -160 202 -2 4 27 8 65 8 l69 0
20 -82z m904 27 c0 -14 31 -218 69 -453 38 -235 71 -443 74 -463 l5 -36 -180
-47 c-98 -25 -184 -44 -189 -40 -6 3 -7 76 -3 192 6 169 5 189 -10 201 -14 12
-62 13 -276 8 -143 -4 -260 -3 -260 1 0 4 20 15 44 25 56 23 128 85 451 391
143 135 263 245 268 246 4 0 7 -11 7 -25z m-1598 -210 c3 -3 -10 -58 -28 -122
-48 -167 -43 -224 23 -269 25 -17 54 -20 238 -24 160 -5 104 -6 -235 -8 -479
-2 -474 -2 -514 51 -29 39 -26 80 19 240 l38 137 227 0 c125 0 229 -2 232 -5z
m-302 -620 l0 -175 -465 0 -465 0 0 175 0 175 465 0 465 0 0 -175z m1660 0 l0
-175 -820 0 -820 0 0 175 0 175 820 0 820 0 0 -175z m563 -176 c39 -34 103
-82 141 -108 75 -48 209 -111 239 -111 9 0 17 -8 17 -17 0 -28 -107 -207 -151
-252 -65 -68 -80 -71 -321 -71 -186 0 -218 -3 -254 -19 -39 -18 -73 -54 -87
-93 -6 -17 -31 -18 -342 -18 -234 0 -335 -3 -335 -11 0 -6 63 -257 140 -558
77 -301 140 -554 140 -562 0 -16 -359 -125 -371 -112 -12 12 -376 1109 -394
1186 -17 72 -21 193 -9 242 21 90 91 175 180 219 30 15 301 89 680 184 346 88
635 160 642 160 7 1 45 -26 85 -59z m-714 -1242 c63 -292 114 -536 115 -542 1
-5 -47 -26 -106 -47 -60 -20 -108 -33 -108 -28 0 6 5 10 10 10 6 0 10 7 10 17
0 9 -63 263 -140 566 -77 302 -140 551 -140 553 0 2 55 4 123 4 l122 0 114
-533z m1019 -79 l-3 -573 -274 -3 c-217 -2 -272 0 -269 10 2 7 78 266 168 576
l164 562 108 0 108 0 -2 -572z m429 2 c101 -310 183 -568 183 -573 0 -4 -132
-7 -294 -5 l-295 3 -5 60 c-5 50 -2 1074 3 1083 0 1 51 1 113 0 l112 -3 183
-565z"/>
<path d="M3286 4452 c-3 -6 -1 -14 5 -17 15 -10 25 3 12 16 -7 7 -13 7 -17 1z"/>
<path d="M3325 4280 c-4 -6 -19 -16 -33 -22 -23 -10 -24 -12 -8 -16 19 -4 65
32 54 43 -3 4 -9 1 -13 -5z"/>
</g>
</svg>
